<svg width="71" height="34" viewBox="0 0 71 34" fill="none" xmlns="http://www.w3.org/2000/svg">
<path d="M9.16776 1.52C11.5438 1.52 13.4758 2.048 14.9638 3.104C16.4518 4.136 17.1958 5.888 17.1958 8.36C17.1958 9.272 16.9798 10.1 16.5478 10.844C16.1398 11.564 15.5998 12.188 14.9278 12.716C16.0318 13.292 16.9318 14.072 17.6278 15.056C18.3478 16.04 18.7078 17.288 18.7078 18.8C18.7078 21.056 17.9158 22.82 16.3318 24.092C14.7718 25.364 12.6838 26 10.0678 26H0.0237561V1.52H9.16776ZM8.48376 5.408H4.66776V11.492H8.12376C9.41976 11.492 10.4278 11.252 11.1478 10.772C11.8918 10.268 12.2638 9.488 12.2638 8.432C12.2638 7.28 11.9278 6.488 11.2558 6.056C10.5838 5.624 9.65976 5.408 8.48376 5.408ZM10.0318 15.272H4.66776V22.148H9.70776C10.9558 22.148 11.9518 21.86 12.6958 21.284C13.4638 20.708 13.8478 19.892 13.8478 18.836C13.8478 17.684 13.4998 16.808 12.8038 16.208C12.1078 15.584 11.1838 15.272 10.0318 15.272ZM27.577 0.583999V26H22.933V0.979998L27.577 0.583999ZM40.3075 26.432C37.5475 26.432 35.3875 25.604 33.8275 23.948C32.2915 22.268 31.5235 20.024 31.5235 17.216C31.5235 14.432 32.3275 12.212 33.9355 10.556C35.5675 8.9 37.7875 8.072 40.5955 8.072C43.4995 8.072 45.7435 8.936 47.3275 10.664C48.9355 12.368 49.7395 14.612 49.7395 17.396C49.7395 20.18 48.8755 22.388 47.1475 24.02C45.4195 25.628 43.1395 26.432 40.3075 26.432ZM44.9155 17.396C44.9155 15.74 44.5435 14.444 43.7995 13.508C43.0795 12.548 42.0475 12.068 40.7035 12.068C39.3355 12.068 38.2675 12.488 37.4995 13.328C36.7315 14.168 36.3475 15.452 36.3475 17.18C36.3475 18.908 36.6715 20.216 37.3195 21.104C37.9915 21.992 39.0115 22.436 40.3795 22.436C41.7235 22.436 42.8155 22.04 43.6555 21.248C44.4955 20.432 44.9155 19.148 44.9155 17.396ZM61.9379 11.852C60.3059 11.852 59.1659 12.428 58.5178 13.58C57.8939 14.732 57.5819 15.92 57.5819 17.144C57.5819 18.512 57.8698 19.736 58.4458 20.816C59.0218 21.896 60.1859 22.436 61.9379 22.436C62.4899 22.436 63.0659 22.316 63.6659 22.076C64.2899 21.812 64.8659 21.512 65.3938 21.176V13.112C64.8659 12.752 64.2899 12.452 63.6659 12.212C63.0659 11.972 62.4899 11.852 61.9379 11.852ZM70.1099 8.54V25.964C70.1099 28.076 69.3899 29.84 67.9499 31.256C66.5339 32.696 64.2779 33.416 61.1819 33.416C60.4378 33.416 59.3578 33.236 57.9418 32.876C56.5258 32.54 55.3498 32.06 54.4138 31.436L55.8178 28.124C56.8978 28.652 57.8218 29.036 58.5899 29.276C59.3579 29.516 60.1859 29.636 61.0738 29.636C62.4659 29.636 63.5339 29.3 64.2779 28.628C65.0218 27.98 65.3938 27.08 65.3938 25.928V25.028C64.6499 25.46 63.8579 25.796 63.0179 26.036C62.1779 26.3 61.3979 26.432 60.6779 26.432C58.1338 26.432 56.1778 25.544 54.8098 23.768C53.4418 21.992 52.7578 19.784 52.7578 17.144C52.7578 14.504 53.4778 12.296 54.9178 10.52C56.3818 8.744 58.3738 7.856 60.8938 7.856C61.7579 7.856 62.7299 8.048 63.8098 8.432C64.8899 8.792 65.8139 9.308 66.5819 9.98L67.6619 8.54H70.1099Z" fill="#113E66"/>
</svg>
