<svg width="35" height="21" viewBox="0 0 35 21" fill="none" xmlns="http://www.w3.org/2000/svg">
<path d="M31.5 6.96159e-08H11.2253C10.7656 -9.16361e-05 10.3104 0.0904213 9.88573 0.266365C9.46103 0.442308 9.07517 0.700232 8.75021 1.02539L0.512691 9.26242C-0.170897 9.94602 -0.170897 11.054 0.512691 11.737L8.75021 19.9746C9.40645 20.6309 10.2968 21 11.2248 21H31.5C33.4332 21 35 19.4332 35 17.5V3.5C35 1.5668 33.4332 6.96159e-08 31.5 6.96159e-08ZM26.8686 13.8939C27.2104 14.2357 27.2104 14.7897 26.8686 15.1315L25.6316 16.3685C25.2898 16.7103 24.7358 16.7103 24.394 16.3685L21.0001 12.9746L17.6062 16.3685C17.2644 16.7103 16.7105 16.7103 16.3687 16.3685L15.1316 15.1315C14.7898 14.7897 14.7898 14.2357 15.1316 13.8939L18.5255 10.5L15.1316 7.10609C14.7898 6.7643 14.7898 6.21031 15.1316 5.86852L16.3687 4.63148C16.7105 4.28969 17.2644 4.28969 17.6062 4.63148L21.0001 8.02539L24.394 4.63148C24.7358 4.28969 25.2898 4.28969 25.6316 4.63148L26.8686 5.86852C27.2104 6.21031 27.2104 6.7643 26.8686 7.10609L23.4747 10.5L26.8686 13.8939Z" fill="white"/>
</svg>
