<svg width="40" height="36" viewBox="0 0 40 36" fill="none" xmlns="http://www.w3.org/2000/svg">
<path d="M27.9583 5.84411L34.2222 12.1875C34.4861 12.4548 34.4861 12.8908 34.2222 13.158L19.0556 28.5173L12.6111 29.2416C11.75 29.3401 11.0208 28.6017 11.1181 27.7296L11.8333 21.2034L27 5.84411C27.2639 5.57687 27.6944 5.57687 27.9583 5.84411ZM39.2083 4.23364L35.8194 0.801719C34.7639 -0.26724 33.0486 -0.26724 31.9861 0.801719L29.5278 3.29127C29.2639 3.55851 29.2639 3.99453 29.5278 4.26177L35.7917 10.6052C36.0556 10.8724 36.4861 10.8724 36.75 10.6052L39.2083 8.11565C40.2639 7.03966 40.2639 5.3026 39.2083 4.23364ZM26.6667 24.3399V31.4991H4.44444V8.99473H20.4028C20.625 8.99473 20.8333 8.9033 20.9931 8.74858L23.7708 5.93553C24.2986 5.40106 23.9236 4.49385 23.1806 4.49385H3.33333C1.49306 4.49385 0 6.00586 0 7.86951V32.6243C0 34.488 1.49306 36 3.33333 36H27.7778C29.6181 36 31.1111 34.488 31.1111 32.6243V21.5269C31.1111 20.7744 30.2153 20.4016 29.6875 20.9291L26.9097 23.7421C26.7569 23.9039 26.6667 24.1149 26.6667 24.3399Z" fill="white"/>
</svg>
