<svg width="39" height="39" viewBox="0 0 39 39" fill="none" xmlns="http://www.w3.org/2000/svg">
<g clip-path="url(#clip0_26_7)">
<path d="M36.8472 0H2.1528C0.9633 0 0 0.9633 0 2.1528V36.8491C0 38.0367 0.9633 39 2.1528 39H20.8338V23.8973H15.7482V18.0122H20.8299V13.6695C20.8299 8.63265 23.907 5.889 28.4017 5.889C30.5545 5.889 32.4031 6.0489 32.9433 6.12105V11.3861H29.8272C27.3819 11.3861 26.91 12.5502 26.91 14.2526V18.0122H32.7385L31.978 23.8973H26.908V39H36.8491C38.0347 39 38.998 38.0367 38.998 36.8472V2.1528C39 0.9633 38.0367 0 36.8472 0Z" fill="white"/>
</g>
<defs>
<clipPath id="clip0_26_7">
<rect width="39" height="39" fill="white"/>
</clipPath>
</defs>
</svg>
