<svg width="94" height="26" viewBox="0 0 94 26" fill="none" xmlns="http://www.w3.org/2000/svg">
<path d="M4.66788 0.339998V10.888H14.3159V0.52H18.9599V25H14.3159V14.632H4.66788V25H0.0238782V0.52L4.66788 0.339998ZM32.292 25.432C29.532 25.432 27.372 24.604 25.812 22.948C24.276 21.268 23.508 19.024 23.508 16.216C23.508 13.432 24.312 11.212 25.92 9.556C27.552 7.9 29.772 7.072 32.58 7.072C35.484 7.072 37.728 7.936 39.312 9.664C40.92 11.368 41.724 13.612 41.724 16.396C41.724 19.18 40.86 21.388 39.132 23.02C37.404 24.628 35.124 25.432 32.292 25.432ZM36.9 16.396C36.9 14.74 36.528 13.444 35.784 12.508C35.064 11.548 34.032 11.068 32.688 11.068C31.32 11.068 30.252 11.488 29.484 12.328C28.716 13.168 28.332 14.452 28.332 16.18C28.332 17.908 28.656 19.216 29.304 20.104C29.976 20.992 30.996 21.436 32.364 21.436C33.708 21.436 34.8 21.04 35.64 20.248C36.48 19.432 36.9 18.148 36.9 16.396ZM60.4743 9.592C61.2183 8.752 62.2023 8.092 63.4263 7.612C64.6743 7.108 65.7903 6.856 66.7743 6.856C69.1503 6.856 70.8303 7.552 71.8143 8.944C72.8223 10.336 73.3263 12.04 73.3263 14.056V25H68.6103V14.272C68.6103 13.168 68.3463 12.328 67.8183 11.752C67.2903 11.152 66.5223 10.852 65.5143 10.852C64.8423 10.852 64.1343 11.032 63.3903 11.392C62.6463 11.752 61.9743 12.16 61.3743 12.616C61.3983 12.856 61.4223 13.096 61.4463 13.336C61.4703 13.576 61.4823 13.816 61.4823 14.056V25H56.7663V14.272C56.7663 13.168 56.5023 12.328 55.9743 11.752C55.4463 11.152 54.6903 10.852 53.7063 10.852C53.1063 10.852 52.4943 10.984 51.8703 11.248C51.2703 11.488 50.6943 11.8 50.1423 12.184V25H45.4623V7.54H47.9103L49.0623 9.124C49.8543 8.404 50.8023 7.852 51.9063 7.468C53.0343 7.06 54.0423 6.856 54.9303 6.856C56.2983 6.856 57.4383 7.108 58.3503 7.612C59.2623 8.092 59.9703 8.752 60.4743 9.592ZM86.6312 25.432C83.6072 25.432 81.2192 24.604 79.4672 22.948C77.7392 21.292 76.8752 19.072 76.8752 16.288C76.8752 13.504 77.6552 11.272 79.2152 9.592C80.7992 7.912 82.9472 7.072 85.6592 7.072C88.3952 7.072 90.3992 7.984 91.6712 9.808C92.9672 11.608 93.6152 13.744 93.6152 16.216V17.656H81.8432C82.0592 18.808 82.5872 19.732 83.4272 20.428C84.2672 21.1 85.3712 21.436 86.7392 21.436C87.5312 21.436 88.2392 21.34 88.8632 21.148C89.5112 20.932 90.2552 20.632 91.0952 20.248L92.4632 23.632C91.6472 24.256 90.6512 24.712 89.4752 25C88.3232 25.288 87.3752 25.432 86.6312 25.432ZM89.1872 14.524C88.9472 13.348 88.5152 12.484 87.8912 11.932C87.2672 11.356 86.4872 11.068 85.5512 11.068C84.5912 11.068 83.7872 11.368 83.1392 11.968C82.4912 12.544 82.0712 13.396 81.8792 14.524H89.1872Z" fill="#113E66"/>
</svg>
