<svg width="39" height="39" viewBox="0 0 39 39" fill="none" xmlns="http://www.w3.org/2000/svg">
<path d="M19.1898 3.5139C24.1484 3.5139 24.7371 3.5334 26.6964 3.62895C31.7292 3.8688 34.0804 6.3765 34.3107 11.622C34.3998 13.6773 34.4165 14.2935 34.4165 19.5C34.4165 24.7104 34.398 25.3266 34.3088 27.3819C34.0785 32.6216 31.7348 35.1332 26.6964 35.375C24.7371 35.4686 24.1521 35.488 19.1898 35.488C14.2312 35.488 13.6444 35.4686 11.687 35.375C6.6411 35.1332 4.30295 32.6138 4.07267 27.38C3.98353 25.3247 3.96495 24.7085 3.96495 19.5C3.96495 14.2935 3.98353 13.6773 4.07267 11.622C4.30295 6.3765 6.64853 3.86685 11.687 3.627C13.6444 3.5334 14.2312 3.5139 19.1898 3.5139ZM19.1898 0C14.1477 0 13.5162 0.0234 11.5347 0.117C4.78952 0.44265 1.03995 4.3719 0.731668 11.4601C0.640668 13.5408 0.620239 14.2038 0.620239 19.5C0.620239 24.7962 0.640668 25.4612 0.731668 27.5399C1.03995 34.6223 4.7821 38.5574 11.5328 38.883C13.5162 38.9766 14.1477 39 19.1898 39C24.2338 39 24.8671 38.9766 26.8487 38.883C33.5864 38.5574 37.3434 34.6281 37.6498 27.5399C37.7408 25.4612 37.7612 24.7962 37.7612 19.5C37.7612 14.2038 37.7408 13.5408 37.6498 11.4621C37.3471 4.38555 33.6012 0.4446 26.8505 0.117C24.8671 0.0195 24.2338 0 19.1898 0ZM19.1898 9.48675C16.6606 9.48675 14.235 10.5417 12.4465 12.4196C10.6581 14.2974 9.65338 16.8443 9.65338 19.5C9.65338 22.1557 10.6581 24.7026 12.4465 26.5804C14.235 28.4583 16.6606 29.5133 19.1898 29.5133C21.719 29.5133 24.1447 28.4583 25.9331 26.5804C27.7215 24.7026 28.7262 22.1557 28.7262 19.5C28.7262 16.8443 27.7215 14.2974 25.9331 12.4196C24.1447 10.5417 21.719 9.48675 19.1898 9.48675ZM19.1898 25.9994C17.5482 25.9994 15.9737 25.3146 14.8129 24.0957C13.6521 22.8769 13 21.2237 13 19.5C13 17.7763 13.6521 16.1231 14.8129 14.9043C15.9737 13.6854 17.5482 13.0006 19.1898 13.0006C20.8315 13.0006 22.4059 13.6854 23.5667 14.9043C24.7275 16.1231 25.3797 17.7763 25.3797 19.5C25.3797 21.2237 24.7275 22.8769 23.5667 24.0957C22.4059 25.3146 20.8315 25.9994 19.1898 25.9994ZM29.1051 6.75285C28.8124 6.75272 28.5226 6.81312 28.2522 6.9306C27.9818 7.04808 27.736 7.22033 27.529 7.43753C27.322 7.65473 27.1577 7.91262 27.0456 8.19647C26.9335 8.48032 26.8757 8.78458 26.8756 9.09188C26.8755 9.39917 26.933 9.70348 27.0449 9.98743C27.1568 10.2714 27.3208 10.5294 27.5277 10.7468C27.7345 10.9642 27.9801 11.1366 28.2505 11.2544C28.5208 11.3721 28.8106 11.4327 29.1032 11.4329C29.6943 11.4329 30.2611 11.1863 30.6791 10.7475C31.097 10.3086 31.3318 9.71346 31.3318 9.09285C31.3318 8.47224 31.097 7.87706 30.6791 7.43822C30.2611 6.99939 29.6943 6.75285 29.1032 6.75285H29.1051Z" fill="white"/>
</svg>
