<svg width="36" height="31" viewBox="0 0 36 31" fill="none" xmlns="http://www.w3.org/2000/svg">
<path d="M35.5018 16.8713L23.5012 30.4316C22.4297 31.6423 20.5724 30.7948 20.5724 29.0594V21.3107H10.8577C9.90763 21.3107 9.14331 20.447 9.14331 19.3735V11.6248C9.14331 10.5513 9.90763 9.68761 10.8577 9.68761H20.5724V1.93889C20.5724 0.211578 22.4225 -0.644009 23.5012 0.566727L35.5018 14.127C36.1661 14.8857 36.1661 16.1126 35.5018 16.8713ZM13.715 30.028V26.7993C13.715 26.2666 13.3292 25.8308 12.8578 25.8308H6.85748C5.59313 25.8308 4.57166 24.6765 4.57166 23.2479V7.75043C4.57166 6.32176 5.59313 5.16753 6.85748 5.16753H12.8578C13.3292 5.16753 13.715 4.73166 13.715 4.19894V0.970306C13.715 0.437582 13.3292 0.00171671 12.8578 0.00171671H6.85748C3.07158 0.00171671 0 3.47249 0 7.75043V23.2479C0 27.5258 3.07158 30.9966 6.85748 30.9966H12.8578C13.3292 30.9966 13.715 30.5607 13.715 30.028Z" fill="white"/>
</svg>
