<svg width="40" height="40" viewBox="0 0 40 40" fill="none" xmlns="http://www.w3.org/2000/svg">
<path d="M39.3682 5.38608C37.9078 6.18258 36.3586 6.70503 34.7722 6.93601C36.4436 5.70667 37.694 3.77066 38.2899 1.48968C36.7191 2.63668 35.0005 3.44487 33.2084 3.87935C32.4601 2.89629 31.5556 2.113 30.551 1.5781C29.5464 1.04319 28.4631 0.768105 27.3685 0.769906C22.2032 0.769906 18.4087 6.70088 19.5747 12.8574C16.3936 12.6615 13.2815 11.6446 10.4405 9.87255C7.59954 8.10054 5.09325 5.6131 3.08438 2.57175C2.06213 4.73942 1.74919 7.30477 2.2092 9.74619C2.6692 12.1876 3.86761 14.3218 5.56075 15.7149C4.29012 15.6671 3.04723 15.2459 1.93589 14.4865C1.84814 19.0475 4.50391 23.3158 8.35107 24.2635C7.17277 24.6571 5.93697 24.7146 4.7379 24.4314C5.24857 26.3883 6.24389 28.0997 7.58447 29.3259C8.92504 30.552 10.5437 31.2316 12.2138 31.2693C8.86031 34.5061 4.59993 35.973 0.368164 35.348C4.02673 38.2401 8.28455 39.7752 12.6331 39.7699C27.4874 39.7699 35.8798 24.333 35.3728 10.4869C36.9391 9.09322 38.2913 7.36764 39.3662 5.39088L39.3682 5.38608Z" fill="white"/>
</svg>
