<svg width="67" height="55" viewBox="0 0 67 55" fill="none" xmlns="http://www.w3.org/2000/svg">
<path d="M33.4433 4.9555C42.3433 4.9555 43.4 4.983 46.9166 5.11775C55.95 5.456 60.17 8.9925 60.5833 16.39C60.7433 19.2885 60.7733 20.1575 60.7733 27.5C60.7733 34.848 60.74 35.717 60.58 38.6155C60.1666 46.0047 55.96 49.5468 46.9166 49.8878C43.4 50.0198 42.35 50.0472 33.4433 50.0472C24.5433 50.0472 23.49 50.0198 19.9766 49.8878C10.9199 49.5468 6.72328 45.9938 6.30995 38.6128C6.14995 35.7143 6.11661 34.8452 6.11661 27.5C6.11661 20.1575 6.14995 19.2885 6.30995 16.39C6.72328 8.9925 10.9333 5.45325 19.9766 5.115C23.49 4.983 24.5433 4.9555 33.4433 4.9555ZM33.4433 0C24.3933 0 23.2599 0.033 19.7033 0.165C7.59661 0.62425 0.866615 6.1655 0.313281 16.1617C0.149948 19.096 0.113281 20.031 0.113281 27.5C0.113281 34.969 0.149948 35.9067 0.313281 38.8382C0.866615 48.8263 7.58328 54.3758 19.6999 54.835C23.2599 54.967 24.3933 55 33.4433 55C42.4966 55 43.6333 54.967 47.1899 54.835C59.2833 54.3758 66.0266 48.8345 66.5766 38.8382C66.74 35.9067 66.7766 34.969 66.7766 27.5C66.7766 20.031 66.74 19.096 66.5766 16.1645C66.0333 6.18475 59.31 0.627 47.1933 0.165C43.6333 0.0275 42.4966 0 33.4433 0ZM33.4433 13.3787C28.9037 13.3787 24.55 14.8665 21.34 17.5148C18.13 20.163 16.3266 23.7548 16.3266 27.5C16.3266 31.2452 18.13 34.837 21.34 37.4852C24.55 40.1335 28.9037 41.6213 33.4433 41.6213C37.9829 41.6213 42.3366 40.1335 45.5466 37.4852C48.7566 34.837 50.56 31.2452 50.56 27.5C50.56 23.7548 48.7566 20.163 45.5466 17.5148C42.3366 14.8665 37.9829 13.3787 33.4433 13.3787ZM33.4433 36.6657C30.4967 36.6657 27.6709 35.7001 25.5873 33.9812C23.5038 32.2623 22.3333 29.9309 22.3333 27.5C22.3333 25.0691 23.5038 22.7377 25.5873 21.0188C27.6709 19.2999 30.4967 18.3342 33.4433 18.3342C36.3898 18.3342 39.2157 19.2999 41.2992 21.0188C43.3828 22.7377 44.5533 25.0691 44.5533 27.5C44.5533 29.9309 43.3828 32.2623 41.2992 33.9812C39.2157 35.7001 36.3898 36.6657 33.4433 36.6657ZM51.24 9.52325C50.7147 9.52307 50.1945 9.60825 49.7091 9.77392C49.2237 9.9396 48.7826 10.1825 48.411 10.4888C48.0394 10.7951 47.7446 11.1588 47.5434 11.5591C47.3422 11.9594 47.2385 12.3885 47.2383 12.8219C47.2381 13.2552 47.3413 13.6844 47.5421 14.0848C47.7429 14.4853 48.0374 14.8492 48.4087 15.1557C48.78 15.4623 49.2208 15.7055 49.706 15.8715C50.1912 16.0375 50.7113 16.1231 51.2366 16.1232C52.2975 16.1232 53.3149 15.7756 54.065 15.1567C54.8152 14.5378 55.2366 13.6985 55.2366 12.8232C55.2366 11.948 54.8152 11.1087 54.065 10.4898C53.3149 9.87093 52.2975 9.52325 51.2366 9.52325H51.24Z" fill="white"/>
</svg>
