<svg width="40" height="39" viewBox="0 0 40 39" fill="none" xmlns="http://www.w3.org/2000/svg">
<path d="M19.8715 0C9.10356 0 0.37146 8.7321 0.37146 19.5C0.37146 30.2698 9.10356 39 19.8715 39C30.6413 39 39.3715 30.2698 39.3715 19.5C39.3715 8.7321 30.6413 0 19.8715 0ZM27.0884 27.4501C23.672 27.6841 16.0651 27.6841 12.6545 27.4501C8.95536 27.1966 8.52441 25.3851 8.49711 19.5C8.52441 13.6032 8.95926 11.8033 12.6545 11.5498C16.0651 11.3158 23.674 11.3158 27.0884 11.5498C30.7895 11.8033 31.2185 13.6149 31.2478 19.5C31.2185 25.3968 30.7837 27.1966 27.0884 27.4501ZM16.6228 15.6936L24.6119 19.4941L16.6228 23.3064V15.6936Z" fill="white"/>
</svg>
